{"title":"Goals- Bayern Munich vs Barcelona 4-0 Champions League 2013 720p","uid":8469552,"size":39347794,"categoryP":"video","categoryS":"tv_shows","magnet":"?xt=urn:btih:e62f3e390e8f81fe5e5689591f4208ac68131129&amp;dn=Goals-+Bayern+Munich+vs+Barcelona+4-0+Champions+League+2013+720p&amp;tr=udp%3A%2F%2Ftracker.openbittorrent.com%3A80&amp;tr=udp%3A%2F%2Fopen.demonii.com%3A1337&amp;tr=udp%3A%2F%2Ftracker.coppersurfer.tk%3A6969&amp;tr=udp%3A%2F%2Fexodus.desync.com%3A6969","seeders":0,"leechers":0,"uploader":"zinkslane","files":1,"time":1368453042,"description":" &lt;a href=&quot;http://i.imgur.com/89Tu7w6.jpg&quot; rel=&quot;nofollow&quot; target=&quot;_NEW&quot;&gt;http://i.imgur.com/89Tu7w6.jpg&lt;/a&gt;\n\nGeneral\nComplete name : Goals- Bayern Munich vs Barcelona 4-0 Champions League 2013 720p HD by-{zinkslane}.MP4\nFormat : MPEG-4\nFormat profile : Base Media / Version 2\nCodec ID : mp42\nFile size : 37.5 MiB\nDuration : 2mn 21s\nOverall bit rate mode : Variable\nOverall bit rate : 2 227 Kbps\nEncoded date : UTC 2013-04-23 04:07:46\nTagged date : UTC 2013-04-23 04:07:46\n====================================================================================\n\nVideo\nID : 1\nFormat : AVC\nFormat/Info : Advanced Video Codec\nFormat profile : &lt;a class=&quot;__cf_email__&quot; href=&quot;/cdn-cgi/l/email-protection&quot; data-cfemail=&quot;430b2a242b030f706d72&quot;&gt;[email&amp;#160;protected]&lt;/a&gt;&lt;script data-cfhash='f9e31' type=&quot;text/javascript&quot;&gt;\n/* &lt;![CDATA[ */!function(){try{var t=&quot;currentScript&quot;in document?document.currentScript:function(){for(var t=document.getElementsByTagName(&quot;script&quot;),e=t.length;e--;)if(t[e].getAttribute(&quot;data-cfhash&quot;))return t[e]}();if(t&amp;&amp;t.previousSibling){var e,r,n,i,c=t.previousSibling,a=c.getAttribute(&quot;data-cfemail&quot;);if(a){for(e=&quot;&quot;,r=parseInt(a.substr(0,2),16),n=2;a.length-n;n+=2)i=parseInt(a.substr(n,2),16)^r,e+=String.fromCharCode(i);e=document.createTextNode(e),c.parentNode.replaceChild(e,c)}t.parentNode.removeChild(t);}}catch(u){}}()/* ]]&gt; */&lt;/script&gt;\nFormat settings, CABAC : Yes\nFormat settings, ReFrames : 1 frame\nCodec ID : avc1\nCodec ID/Info : Advanced Video Coding\nDuration : 2mn 21s\nBit rate : 2 033 Kbps\nMaximum bit rate : 3 835 Kbps\nWidth : 1 280 pixels\nHeight : 720 pixels\nDisplay aspect ratio : 16:9\nFrame rate mode : Constant\nFrame rate : 24.000 fps\nColor space : YUV\nChroma subsampling : 4:2:0\nBit depth : 8 bits\nScan type : Progressive\nBits/(Pixel*Frame) : 0.092\nStream size : 34.2 MiB (91%)\nTagged date : UTC 2013-04-23 04:07:51\n===================================================================================\nAudio\nID : 2\nFormat : AAC\nFormat/Info : Advanced Audio Codec\nFormat profile : LC\nCodec ID : 40\nDuration : 2mn 21s\nBit rate mode : Variable\nBit rate : 192 Kbps\nMaximum bit rate : 202 Kbps\nChannel(s) : 2 channels\nChannel positions : Front: L R\nSampling rate : 44.1 KHz\nCompression mode : Lossy\nStream size : 3.24 MiB (9%)\n===================================================================================\nscreen shots -  &lt;a href=&quot;\nhttp://i.imgur.com/jRef7Ej.jpg&quot; rel=&quot;nofollow&quot; target=&quot;_NEW&quot;&gt;\nhttp://i.imgur.com/jRef7Ej.jpg&lt;/a&gt;\n\n &lt;a href=&quot;\nhttp://i.imgur.com/4U4Dh9K.jpg&quot; rel=&quot;nofollow&quot; target=&quot;_NEW&quot;&gt;\nhttp://i.imgur.com/4U4Dh9K.jpg&lt;/a&gt;\n\ndo seed n' share!!!!","torrent":{"xt":"urn:btih:e62f3e390e8f81fe5e5689591f4208ac68131129","amp;dn":"Goals-+Bayern+Munich+vs+Barcelona+4-0+Champions+League+2013+720p","amp;tr":["udp%3A%2F%2Ftracker.openbittorrent.com%3A80","udp%3A%2F%2Fopen.demonii.com%3A1337","udp%3A%2F%2Ftracker.coppersurfer.tk%3A6969","udp%3A%2F%2Fexodus.desync.com%3A6969"],"infoHash":"e62f3e390e8f81fe5e5689591f4208ac68131129","infoHashBuffer":{"type":"Buffer","data":[230,47,62,57,14,143,129,254,94,86,137,89,31,66,8,172,104,19,17,41]},"announce":[],"urlList":[]}}